<svg width="97" height="97" viewBox="0 0 97 97" fill="none" xmlns="http://www.w3.org/2000/svg">
<path d="M48.4403 18.6185C61.1424 18.6185 85.2408 16.8375 85.2408 10.3085C85.2408 3.77939 61.1418 1.99847 48.4403 1.99847C35.7383 1.99902 11.6399 3.77939 11.6399 10.3085C11.6399 16.8381 35.7389 18.6185 48.4403 18.6185ZM48.4403 4.37331C70.7573 4.37331 82.867 8.29073 82.867 10.3092C82.867 12.327 70.7582 16.245 48.4403 16.245C26.1234 16.245 14.0137 12.3276 14.0137 10.3092C14.0137 8.29073 26.1224 4.37331 48.4403 4.37331Z" fill="black"/>
<path d="M30.5148 36.6632C30.5148 36.6632 31.7019 36.6632 31.8204 35.5947C31.939 35.0009 31.4642 34.4077 30.7519 34.2891C18.1684 32.8645 14.0139 30.2527 14.0139 29.3033L14.0144 16.0075C14.0144 15.2952 13.5397 14.8205 12.8273 14.8205C12.115 14.8205 11.6403 15.2957 11.6403 16.0075V29.3033C11.6403 33.5769 21.9682 35.7139 30.5151 36.6633L30.5148 36.6632Z" fill="black"/>
<path d="M85.2408 16.4831C85.2408 15.7707 84.7661 15.296 84.0538 15.296C83.3414 15.296 82.8667 15.7707 82.8667 16.4831V29.3037C82.8667 30.2537 78.7118 32.8649 66.0095 34.2895C65.4157 34.4081 64.941 35.0018 64.941 35.5951C64.941 36.6636 66.2466 36.6636 66.2466 36.6636C74.9127 35.7142 85.2406 33.5772 85.2406 29.3037L85.2408 16.4831Z" fill="black"/>
<path d="M32.8899 55.8942C32.8899 55.8942 33.9584 55.8942 34.1955 54.8256C34.3141 54.2318 33.7208 53.6386 33.127 53.52C18.6435 52.0954 14.0139 49.3651 14.0139 48.2966V35.1193C14.0139 34.4069 13.5391 33.9322 12.8268 33.9322C12.1145 33.9322 11.6397 34.4075 11.6397 35.1193V48.2966C11.6397 53.1639 24.9355 55.1819 32.8897 55.8942L32.8899 55.8942Z" fill="black"/>
<path d="M82.8671 35.4757V48.2967C82.8671 49.3652 78.2375 52.0955 63.754 53.5202C63.1602 53.6387 62.5669 54.114 62.6855 54.8258C62.804 56.0128 63.9911 55.8943 63.9911 55.8943C71.9448 55.1819 85.241 53.164 85.241 48.2967L85.2416 35.4756C85.2416 34.7633 84.7668 34.2886 84.0545 34.2886C83.3421 34.2886 82.8669 34.7633 82.8669 35.4756L82.8671 35.4757Z" fill="black"/>
<path d="M71.9463 10.9028C72.6587 11.0213 74.4389 11.3775 74.5581 11.3775C75.1519 11.3775 75.6266 11.0213 75.7452 10.4275C75.8637 9.83372 75.5075 9.12192 74.7957 9.00287C74.7957 9.00287 73.134 8.6467 72.4216 8.52816C71.8278 8.40961 71.116 8.88433 70.9969 9.47813C70.8779 10.1905 71.3526 10.7843 71.9464 10.9028H71.9463Z" fill="black"/>
<path d="M53.1892 9.12189C58.2937 9.24043 63.0424 9.5966 67.3166 10.1904C67.3166 10.1904 68.5037 10.3089 68.6222 9.12189C68.7407 8.52808 68.266 7.93483 67.5537 7.81628C63.2802 7.34156 58.4128 6.98539 53.1894 6.8663C52.5956 6.8663 52.0023 7.34102 52.0023 8.05336C52.0029 8.64717 52.4776 9.12187 53.1899 9.12187L53.1892 9.12189Z" fill="black"/>
<path d="M17.5764 61.3553C16.8641 61.3553 16.3894 61.83 16.3894 62.5423V66.1035C16.3894 66.5782 16.7455 67.0535 17.2203 67.172C19.2381 67.8843 21.6128 68.4776 24.5802 68.9529C24.6988 68.9529 25.7673 69.0715 26.0049 68.0029C26.1234 67.4091 25.6487 66.6973 25.0549 66.5783C22.6807 66.1036 20.6623 65.6289 18.8819 65.1536V62.5418C18.7634 61.83 18.2881 61.3553 17.5763 61.3553L17.5764 61.3553Z" fill="black"/>
<path d="M84.0547 53.0452C83.3423 53.0452 82.8676 53.5199 82.8676 54.2322V67.2904C82.8676 68.596 76.3385 71.6824 60.4315 72.7509C59.7192 72.7509 59.2444 73.3447 59.363 74.0565C59.4815 75.125 60.55 75.125 60.6686 75.125C68.0291 74.5323 85.3606 72.7514 85.3606 67.2909V54.2322C85.2421 53.6389 84.7668 53.0451 84.055 53.0451L84.0547 53.0452Z" fill="black"/>
<path d="M55.8013 73.1075C54.9704 73.1075 54.0204 73.2261 53.1895 73.2261C52.4772 73.2261 52.0024 73.8199 52.0024 74.4131C52.0024 75.007 52.5962 75.6002 53.1895 75.6002C53.1895 75.6002 55.0889 75.6002 55.9198 75.4817C56.6321 75.4817 57.1068 74.8879 57.1068 74.2946C57.1068 73.7008 56.3945 72.989 55.8012 73.1075H55.8013Z" fill="black"/>
<path d="M48.4404 73.2267C26.1235 73.2267 14.0137 69.3093 14.0137 67.2908V54.2327C14.0137 53.5203 13.539 53.0456 12.8266 53.0456C12.1143 53.0456 11.6396 53.5203 11.6396 54.2327V67.2908C11.6396 73.8199 35.7385 75.6008 48.44 75.6008C49.1523 75.6008 49.6271 75.1261 49.6271 74.4138C49.6271 73.7014 49.1523 73.2267 48.44 73.2267L48.4404 73.2267Z" fill="black"/>
<path d="M63.7539 32.865H65.0595C65.7719 32.865 66.2466 32.3903 66.2466 31.6779C66.2466 30.9656 65.7719 30.4909 65.0595 30.4909L54.3759 30.4903V28.2348C54.3759 26.9292 53.3074 25.7422 51.8828 25.7422H44.879C43.5733 25.7422 42.3863 26.8107 42.3863 28.2348V30.4903H31.7022C30.9899 30.4903 30.5151 30.9651 30.5151 31.6774C30.5151 32.3897 30.9899 32.8645 31.7022 32.8645H33.0078L34.1949 41.0558C34.3134 41.6496 34.9072 42.2429 35.5005 42.0058C36.0943 41.8873 36.569 41.2935 36.4504 40.7002L35.2634 32.8655H61.0238L56.7503 62.6611C56.6317 63.2549 56.1565 63.7296 55.4447 63.7296L41.0804 63.7291C40.4865 63.7291 39.8933 63.2544 39.7747 62.542L37.2816 45.4479C37.163 44.8541 36.5692 44.3794 35.976 44.4984C35.3822 44.617 34.9075 45.2108 35.0265 45.804L37.5197 62.779C37.7573 64.56 39.3006 65.9841 41.2 65.9841H55.8013C57.5822 65.9841 59.244 64.6785 59.4816 62.779L63.7539 32.865ZM44.8791 30.4903V28.1162L51.8829 28.2347V30.4902L44.8791 30.4903Z" fill="black"/>
<path d="M43.8108 61.3553C44.4046 61.2367 44.9978 60.7615 44.8793 60.0497L42.5051 36.3068C42.3866 35.713 41.9113 35.2383 41.1995 35.2383C40.6057 35.3569 40.0125 35.8321 40.131 36.5439L42.5051 60.2868C42.6237 60.8806 43.2175 61.4738 43.8108 61.3553Z" fill="black"/>
<path d="M54.3768 60.2869L56.751 36.5441C56.8695 35.9502 56.3948 35.357 55.6824 35.2384C54.9701 35.1199 54.4954 35.5946 54.3768 36.307L52.0027 60.0498C51.8842 60.6436 52.3589 61.2368 53.0712 61.3554C53.0707 61.3554 54.2583 61.3554 54.3768 60.2869Z" fill="black"/>
<path d="M49.628 60.1677V36.4249C49.628 35.7125 49.1532 35.2378 48.4409 35.2378C47.7286 35.2378 47.2538 35.7125 47.2538 36.4249V60.1677C47.2538 60.8801 47.7286 61.3548 48.4409 61.3548C49.1532 61.3548 49.628 60.8801 49.628 60.1677Z" fill="black"/>
</svg>
