<svg width="400" height="400" viewBox="0 0 400 400" fill="none" xmlns="http://www.w3.org/2000/svg">
<ellipse cx="200" cy="181.25" rx="200" ry="181.25" fill="white"/>
<path fill-rule="evenodd" clip-rule="evenodd" d="M200.001 44.6191C279.109 44.6191 343.332 104.164 343.332 177.499C343.332 250.84 279.104 310.379 200.001 310.379C120.892 310.379 56.6694 250.834 56.6694 177.499C56.6694 104.159 120.898 44.6191 200.001 44.6191V44.6191ZM200.001 63.1608C131.932 63.1608 76.6694 114.397 76.6694 177.499C76.6694 240.602 131.935 291.838 200.001 291.838C268.067 291.838 323.332 240.602 323.332 177.499C323.332 114.397 268.067 63.1608 200.001 63.1608V63.1608Z" fill="#104B0B"/>
<path fill-rule="evenodd" clip-rule="evenodd" d="M200.001 87.8809C233.122 87.8809 260.001 112.8 260.001 143.506C260.001 174.211 233.122 199.131 200.001 199.131C166.88 199.131 140.001 174.211 140.001 143.506C140.001 112.8 166.88 87.8809 200.001 87.8809V87.8809ZM200.001 106.423C177.92 106.423 160.001 123.035 160.001 143.506C160.001 163.976 177.92 180.589 200.001 180.589C222.082 180.589 240.001 163.976 240.001 143.506C240.001 123.035 222.082 106.423 200.001 106.423Z" fill="#104B0B"/>
<path fill-rule="evenodd" clip-rule="evenodd" d="M286.669 279.479C284.082 279.479 281.722 278.565 279.934 277.069C278.135 275.697 276.669 273.559 276.669 270.209C276.669 230.951 242.349 199.131 200 199.131C157.654 199.131 123.332 230.948 123.332 270.209C123.332 278.948 113.332 279.48 113.332 279.48C107.811 279.48 103.332 275.326 103.332 270.209C103.332 220.715 146.61 180.589 200 180.589C253.386 180.589 296.669 220.712 296.669 270.209C296.669 278.948 286.669 279.48 286.669 279.48L286.669 279.479Z" fill="#104B0B"/>
</svg>
