<?xml version="1.0" standalone="no"?><svg xmlns="http://www.w3.org/2000/svg" viewBox="0 0 1440 320"><path fill="#FFC875" fill-opacity="1" d="M0,256L20,261.3C40,267,80,277,120,288C160,299,200,309,240,309.3C280,309,320,299,360,288C400,277,440,267,480,224C520,181,560,107,600,74.7C640,43,680,53,720,64C760,75,800,85,840,90.7C880,96,920,96,960,122.7C1000,149,1040,203,1080,229.3C1120,256,1160,256,1200,229.3C1240,203,1280,149,1320,149.3C1360,149,1400,203,1420,229.3L1440,256L1440,320L1420,320C1400,320,1360,320,1320,320C1280,320,1240,320,1200,320C1160,320,1120,320,1080,320C1040,320,1000,320,960,320C920,320,880,320,840,320C800,320,760,320,720,320C680,320,640,320,600,320C560,320,520,320,480,320C440,320,400,320,360,320C320,320,280,320,240,320C200,320,160,320,120,320C80,320,40,320,20,320L0,320Z"></path></svg>