<?xml version="1.0" standalone="no"?><svg xmlns="http://www.w3.org/2000/svg" viewBox="0 0 1440 320"><path fill="#FFB672" fill-opacity="1" d="M0,64L26.7,96C53.3,128,107,192,160,186.7C213.3,181,267,107,320,64C373.3,21,427,11,480,16C533.3,21,587,43,640,48C693.3,53,747,43,800,69.3C853.3,96,907,160,960,202.7C1013.3,245,1067,267,1120,256C1173.3,245,1227,203,1280,197.3C1333.3,192,1387,224,1413,240L1440,256L1440,320L1413.3,320C1386.7,320,1333,320,1280,320C1226.7,320,1173,320,1120,320C1066.7,320,1013,320,960,320C906.7,320,853,320,800,320C746.7,320,693,320,640,320C586.7,320,533,320,480,320C426.7,320,373,320,320,320C266.7,320,213,320,160,320C106.7,320,53,320,27,320L0,320Z"></path></svg>