<svg width="65" height="60" viewBox="0 0 65 60" fill="none" xmlns="http://www.w3.org/2000/svg">
<path d="M32.2481 13.3645C43.3787 13.3645 64.4959 11.9324 64.4959 6.68226C64.4959 1.43208 43.3782 0 32.2481 0C21.1175 0.000435351 0.000305176 1.43208 0.000305176 6.68226C0.000305176 11.9329 21.118 13.3645 32.2481 13.3645ZM32.2481 1.90966C51.8042 1.90966 62.4158 5.05975 62.4158 6.68282C62.4158 8.30544 51.805 11.456 32.2481 11.456C12.692 11.456 2.08038 8.30589 2.08038 6.68282C2.08038 5.05975 12.6912 1.90966 32.2481 1.90966Z" fill="white"/>
<path d="M16.5402 27.8748C16.5402 27.8748 17.5804 27.8748 17.6843 27.0156C17.7882 26.5381 17.3722 26.061 16.748 25.9657C5.72116 24.8201 2.08061 22.7199 2.08061 21.9565L2.08108 11.265C2.08108 10.6922 1.66509 10.3105 1.04088 10.3105C0.416661 10.3105 0.000671387 10.6927 0.000671387 11.265V21.9565C0.000671387 25.3929 9.05086 27.1114 16.5405 27.8748L16.5402 27.8748Z" fill="white"/>
<path d="M64.4959 11.6474C64.4959 11.0746 64.0799 10.6929 63.4557 10.6929C62.8315 10.6929 62.4155 11.0746 62.4155 11.6474V21.9568C62.4155 22.7207 58.7746 24.8204 47.6437 25.966C47.1234 26.0613 46.7074 26.5388 46.7074 27.0159C46.7074 27.8751 47.8515 27.8751 47.8515 27.8751C55.4455 27.1116 64.4957 25.3932 64.4957 21.9568L64.4959 11.6474Z" fill="white"/>
<path d="M18.6215 43.3388C18.6215 43.3388 19.5578 43.3388 19.7656 42.4796C19.8694 42.0021 19.3496 41.5251 18.8292 41.4297C6.13752 40.2841 2.08059 38.0887 2.08059 37.2294V26.6333C2.08059 26.0604 1.6646 25.6787 1.04039 25.6787C0.416173 25.6787 0.000183105 26.0609 0.000183105 26.6333V37.2294C0.000183105 41.1434 11.6511 42.7661 18.6213 43.3388L18.6215 43.3388Z" fill="white"/>
<path d="M62.4159 26.9198V37.2295C62.4159 38.0887 58.3589 40.2842 45.6672 41.4298C45.1469 41.5251 44.627 41.9073 44.7309 42.4796C44.8348 43.4342 45.875 43.3389 45.875 43.3389C52.8447 42.7661 64.496 41.1434 64.496 37.2295L64.4965 26.9198C64.4965 26.3469 64.0805 25.9652 63.4563 25.9652C62.8321 25.9652 62.4156 26.3469 62.4156 26.9198L62.4159 26.9198Z" fill="white"/>
<path d="M52.8461 7.16015C53.4703 7.25547 55.0304 7.54188 55.1348 7.54188C55.6551 7.54188 56.0711 7.25548 56.175 6.77798C56.2789 6.30049 55.9668 5.72811 55.343 5.63238C55.343 5.63238 53.8869 5.34598 53.2626 5.25065C52.7423 5.15533 52.1185 5.53706 52.0142 6.01455C51.9098 6.58736 52.3258 7.06485 52.8462 7.16015H52.8461Z" fill="white"/>
<path d="M36.4095 5.72807C40.8825 5.8234 45.0437 6.10981 48.7892 6.58729C48.7892 6.58729 49.8294 6.68261 49.9333 5.72807C50.0371 5.25058 49.6212 4.77353 48.9969 4.67821C45.2521 4.29647 40.9869 4.01007 36.4097 3.91431C35.8893 3.91431 35.3694 4.29604 35.3694 4.86885C35.3699 5.34634 35.7859 5.72806 36.4101 5.72806L36.4095 5.72807Z" fill="white"/>
<path d="M5.20238 47.7302C4.57816 47.7302 4.16217 48.112 4.16217 48.6848V51.5484C4.16217 51.9301 4.47428 52.3123 4.89027 52.4076C6.65851 52.9804 8.73943 53.4575 11.3397 53.8397C11.4436 53.8397 12.3799 53.935 12.5881 53.0758C12.692 52.5983 12.276 52.0259 11.7557 51.9302C9.67522 51.5484 7.90649 51.1667 6.34638 50.7846V48.6844C6.2425 48.112 5.82603 47.7303 5.20229 47.7303L5.20238 47.7302Z" fill="white"/>
<path d="M63.4565 41.0479C62.8323 41.0479 62.4163 41.4296 62.4163 42.0024V52.5028C62.4163 53.5526 56.695 56.0345 42.7558 56.8937C42.1316 56.8937 41.7156 57.3712 41.8195 57.9436C41.9234 58.8028 42.8597 58.8028 42.9636 58.8028C49.4135 58.3262 64.6009 56.8942 64.6009 52.5032V42.0024C64.497 41.5253 64.0806 41.0479 63.4568 41.0479L63.4565 41.0479Z" fill="white"/>
<path d="M38.6984 57.1805C37.9703 57.1805 37.1378 57.2758 36.4097 57.2758C35.7855 57.2758 35.3695 57.7533 35.3695 58.2304C35.3695 58.7078 35.8899 59.1849 36.4097 59.1849C36.4097 59.1849 38.0741 59.1849 38.8022 59.0896C39.4264 59.0896 39.8424 58.6121 39.8424 58.135C39.8424 57.6575 39.2182 57.0852 38.6983 57.1805H38.6984Z" fill="white"/>
<path d="M32.2481 57.2763C12.6921 57.2763 2.08041 54.1262 2.08041 52.5031V42.0028C2.08041 41.43 1.66442 41.0482 1.04021 41.0482C0.41599 41.0482 0 41.43 0 42.0028V52.5031C0 57.7533 21.1176 59.1854 32.2478 59.1854C32.872 59.1854 33.288 58.8036 33.288 58.2308C33.288 57.658 32.872 57.2763 32.2478 57.2763L32.2481 57.2763Z" fill="white"/>
<path d="M45.6672 24.8205H46.8113C47.4355 24.8205 47.8515 24.4388 47.8515 23.866C47.8515 23.2932 47.4355 22.9114 46.8113 22.9114L37.4494 22.911V21.0973C37.4494 20.0474 36.513 19.0929 35.2646 19.0929H29.1273C27.9832 19.0929 26.943 19.9521 26.943 21.0973V22.911H17.5806C16.9564 22.911 16.5404 23.2927 16.5404 23.8655C16.5404 24.4383 16.9564 24.8201 17.5806 24.8201H18.7247L19.7649 31.407C19.8688 31.8844 20.3891 32.3615 20.909 32.1709C21.4293 32.0755 21.8453 31.598 21.7414 31.121L20.7012 24.8209H43.2748L39.53 48.7803C39.4261 49.2578 39.0096 49.6395 38.3859 49.6395L25.7986 49.6391C25.2782 49.6391 24.7584 49.2573 24.6545 48.6845L22.4698 34.9387C22.3659 34.4612 21.8455 34.0795 21.3257 34.1752C20.8053 34.2706 20.3893 34.7481 20.4937 35.2251L22.6784 48.8751C22.8867 50.3072 24.239 51.4523 25.9034 51.4523H38.6984C40.259 51.4523 41.7151 50.4025 41.9234 48.8751L45.6672 24.8205ZM29.1274 22.911V21.0019L35.2648 21.0972V22.9109L29.1274 22.911Z" fill="white"/>
<path d="M28.1913 47.7302C28.7116 47.6349 29.2315 47.2527 29.1276 46.6803L27.0471 27.5882C26.9433 27.1107 26.5268 26.7289 25.9031 26.7289C25.3827 26.8243 24.8628 27.2064 24.9667 27.7788L27.0472 46.871C27.151 47.3485 27.6714 47.8255 28.1913 47.7302V47.7302Z" fill="white"/>
<path d="M37.4502 46.8711L39.5306 27.7789C39.6345 27.3014 39.2185 26.8244 38.5943 26.7291C37.9701 26.6337 37.5541 27.0155 37.4502 27.5883L35.3698 46.6805C35.2659 47.1579 35.6819 47.635 36.3061 47.7303C36.3056 47.7303 37.3463 47.7303 37.4502 46.8711V46.8711Z" fill="white"/>
<path d="M33.2888 46.7753V27.6831C33.2888 27.1103 32.8728 26.7286 32.2486 26.7286C31.6244 26.7286 31.2084 27.1103 31.2084 27.6831V46.7753C31.2084 47.3481 31.6244 47.7298 32.2486 47.7298C32.8728 47.7298 33.2888 47.3481 33.2888 46.7753V46.7753Z" fill="white"/>
</svg>
