<svg width="29" height="26" viewBox="0 0 29 26" fill="none" xmlns="http://www.w3.org/2000/svg">
<path fill-rule="evenodd" clip-rule="evenodd" d="M12.6261 0.47229C19.2128 0.47229 24.5603 5.35409 24.5603 11.3666C24.5603 17.379 19.2125 22.2608 12.6261 22.2608C6.03971 22.2608 0.691895 17.379 0.691895 11.3666C0.691895 5.35409 6.03971 0.47229 12.6261 0.47229ZM12.6261 2.23896C7.10789 2.23896 2.6272 6.32929 2.6272 11.3666C2.6272 16.4038 7.108 20.4942 12.6261 20.4942C18.1442 20.4942 22.625 16.4038 22.625 11.3666C22.625 6.32929 18.1442 2.23896 12.6261 2.23896Z" fill="#104B0B"/>
<path fill-rule="evenodd" clip-rule="evenodd" d="M28.1475 24.2865C28.5255 24.6304 28.5255 25.1912 28.1475 25.535C27.7708 25.8801 27.1565 25.8801 26.7798 25.535L19.6839 19.0574C19.3059 18.7135 19.3059 18.1528 19.6839 17.8089C20.0606 17.4639 20.6749 17.4639 21.0515 17.8089L28.1475 24.2865Z" fill="#104B0B"/>
</svg>
